<?xml version="1.0" standalone="no"?>
<!DOCTYPE svg PUBLIC "-//W3C//DTD SVG 1.1//EN" "http://www.w3.org/Graphics/SVG/1.1/DTD/svg11.dtd" >
<svg xmlns="http://www.w3.org/2000/svg" xmlns:xlink="http://www.w3.org/1999/xlink" version="1.1" viewBox="-10 0 768 1000">
  <g transform="matrix(1 0 0 -1 0 800)">
   <path fill="currentColor"
d="M379 271q-70 0 -109 6q7 -14 7 -24q0 -15 -6 -25q29 9 108 9t108 -9q-6 10 -6 25q0 12 6 24q-47 -6 -108 -6zM379 633q-12 0 -21.5 -9t-9.5 -20q0 -13 9 -21.5t22 -8.5t22 8.5t9 21.5q0 12 -9.5 20.5t-21.5 8.5zM379 208q-49 0 -75.5 -3.5t-34.5 -8.5t-8 -14t18 -11.5
t58 -2.5h20h22q117 0 117 14q0 16 -23 21t-94 5zM377 535q-44 -5 -99.5 -52t-59.5 -93q6 -41 13.5 -56t40.5 -24.5t106 -9.5q45 0 74 3.5t45.5 8.5t25 18.5t11.5 24t6 35.5q-4 46 -60.5 93t-102.5 52zM361 349v44h-34v39h34v43h36v-43h34v-39h-34v-44h-36zM379 109
q18 -34 74 -50t118 -18q3 0 28 -4t26 -4q21 0 21 20q0 14 -20.5 21t-84.5 11q-44 3 -76 13t-44.5 20.5t-23.5 18.5t-20 8t-19.5 -8.5t-22 -19t-41 -20.5t-70.5 -12q-45 0 -70.5 -4.5t-33.5 -11t-8 -16.5q3 -20 21 -20q1 0 25.5 4t27.5 4q65 0 120 16.5t73 51.5zM516 258
q0 -11 10 -41t10 -37q0 -34 -71 -43q54 -19 96 -19q3 0 29 1.5t30 1.5q49 0 82 -63q-3 -4 -14 -22t-16.5 -25.5t-16.5 -18t-22 -15.5q-4 18 -51.5 23.5t-110 16.5t-92.5 41q-25 -25 -69.5 -38t-82.5 -14.5t-68.5 -8t-33.5 -20.5q-11 3 -23 16.5t-28 37.5l-18 27q33 63 82 63
q1 0 28.5 -1.5t30.5 -1.5q41 0 96 19q-71 9 -71 43q0 6 10 37.5t10 39.5q0 3 -15 19t-30 44t-15 62q0 63 57.5 115.5t91.5 55.5q-22 27 -22 56t19.5 45t50.5 16q30 0 49.5 -16.5t19.5 -44.5q0 -31 -21 -56q32 -4 90.5 -56t58.5 -115q0 -56 -60 -124z" />
  </g>

</svg>
