<?xml version="1.0" standalone="no"?>
<!DOCTYPE svg PUBLIC "-//W3C//DTD SVG 1.1//EN" "http://www.w3.org/Graphics/SVG/1.1/DTD/svg11.dtd" >
<svg xmlns="http://www.w3.org/2000/svg" xmlns:xlink="http://www.w3.org/1999/xlink" version="1.1" viewBox="-10 0 768 1000">
  <g transform="matrix(1 0 0 -1 0 800)">
   <path fill="currentColor"
d="M330 231q-51 0 -51 -16q0 -17 100 -17t100 17q0 16 -51 16h-98zM379 261q63 0 81.5 3t18.5 13q0 16 -51 16h-110q-39 0 -39 -16q0 -10 20 -13t80 -3zM243 245q0 2 -15.5 21t-30.5 50t-15 61q0 66 49 113t100 59q-22 27 -22 56t19.5 45t50.5 16q30 0 50 -16.5t20 -44.5
t-22 -56q56 -14 102.5 -58.5t46.5 -113.5q0 -58 -60 -127q0 -6 9.5 -36.5t10.5 -40.5q0 -35 -71 -41q52 -20 97 -20l59 3q30 0 47.5 -16t34.5 -48q-3 -4 -17.5 -28t-26 -36t-26.5 -17q-3 16 -33 22.5t-68.5 7.5t-83 13.5t-69.5 37.5q-31 -32 -93.5 -42.5t-109.5 -15
t-51 -23.5q-15 6 -26 18.5t-24.5 33.5t-19.5 29q16 31 34 47.5t48 16.5q53 -3 59 -3q46 0 97 20q-71 6 -71 41q0 7 10.5 35.5t10.5 36.5zM397 343v46h35v38h-35v43h-36v-43h-35v-38h35v-46h36zM379 625q-11 0 -18.5 -7t-7.5 -17t7.5 -17.5t18.5 -7.5q25 0 25 25q0 24 -25 24
z" />
  </g>

</svg>
