<?xml version="1.0" standalone="no"?>
<!DOCTYPE svg PUBLIC "-//W3C//DTD SVG 1.1//EN" "http://www.w3.org/Graphics/SVG/1.1/DTD/svg11.dtd" >
<svg xmlns="http://www.w3.org/2000/svg" xmlns:xlink="http://www.w3.org/1999/xlink" version="1.1" viewBox="-10 0 768 1000">
  <g transform="matrix(1 0 0 -1 0 800)">
   <path fill="currentColor"
d="M558 465q12 0 30 -5.5t40.5 -17t38 -37.5t15.5 -60q0 -27 -9.5 -48t-23.5 -38t-28.5 -38t-26 -60.5t-13.5 -93.5q-2 -67 -202 -67q-199 0 -202 67q-4 70 -20.5 115t-34 61t-32 41t-14.5 61q0 35 15.5 61t38 37.5t41 16.5t31.5 5q49 0 98 -39q0 47 9 66.5t46 43.5v24
l-41 24v36h37l13 38h30l13 -38h37v-36l-41 -24v-24q37 -23 46 -44.5t9 -65.5q13 13 41.5 26t58.5 13zM379 337q6 11 17 28t14.5 23.5t7 20t3.5 31.5q0 59 -41 59q-43 0 -43 -59q0 -18 3.5 -31.5t7 -20.5t14.5 -23.5t17 -27.5zM557 429q-49 0 -101 -50.5t-59 -131.5
q0 -24 183 -24q2 2 23 28t32 47.5t11 40.5q0 40 -25.5 65t-63.5 25zM562 183q-29 2 -62.5 4.5t-47 3.5t-29.5 3t-25 4t-19 6q-12 -5 -29 -8.5t-30.5 -4.5t-53.5 -3.5t-70 -4.5q10 -38 13 -84q69 22 170 22q103 0 170 -22q3 50 13 84zM201 429q-36 0 -62.5 -25t-26.5 -65
q0 -14 8 -31t16 -29t23 -31t19 -25q183 0 183 24q-7 81 -58.5 131.5t-101.5 50.5zM380 81q-140 0 -140 -26q0 -9 48 -14t91 -5q139 0 139 19q0 26 -138 26z" />
  </g>

</svg>
