<?xml version="1.0" standalone="no"?>
<!DOCTYPE svg PUBLIC "-//W3C//DTD SVG 1.1//EN" "http://www.w3.org/Graphics/SVG/1.1/DTD/svg11.dtd" >
<svg xmlns="http://www.w3.org/2000/svg" xmlns:xlink="http://www.w3.org/1999/xlink" version="1.1" viewBox="-10 0 768 1000">
  <g transform="matrix(1 0 0 -1 0 800)">
   <path fill="currentColor"
d="M152 236q14 0 14 -19q0 -25 -25 -25q-10 0 -10 16q0 28 21 28zM224 358q-14 0 -14 17q0 19 19 35t39 16q23 0 23 -14q0 -18 -24 -36t-43 -18zM232 546q4 -14 4 -19q0 -3 -3 -16q6 0 21.5 5.5t22.5 10.5q-27 14 -45 19zM407 272q0 -44 -24 -89.5t-50.5 -84.5t-29.5 -61
h330q4 46 4 68q0 87 -24.5 161t-58 116t-63 65t-46.5 23h-60q-8 4 -14.5 36t-16.5 40q-8 -26 -27.5 -37t-48 -19t-44.5 -20q-12 -41 -64.5 -141t-56.5 -127q4 -15 19 -27t32 -12q7 0 18 8t20 8q5 0 5 -6l-3 -9q-3 -9 -3 -10q0 -9 14 -9q2 0 25 35q44 68 125 103
q6 40 25.5 73t30.5 33q9 0 9 -13q0 -7 -12.5 -42.5t-12.5 -48.5q0 -3 2 -13zM428 512q21 0 49 -11t64 -41.5t65.5 -76t50 -124t20.5 -175.5q0 -47 -4 -84h-419q3 46 19.5 82t35.5 55t36.5 47.5t21.5 61.5q-39 -17 -66.5 -41.5t-38.5 -44.5t-21.5 -34.5t-20.5 -14.5
q-17 0 -30 8t-14 20q-10 -5 -20 -5q-48 0 -76 60q6 38 66 164.5t60 163.5q0 5 -6 56q62 0 111 -34q27 47 45 47q24 -13 34.5 -29t20.5 -52q10 2 17 2z" />
  </g>

</svg>
