<?xml version="1.0" standalone="no"?>
<!DOCTYPE svg PUBLIC "-//W3C//DTD SVG 1.1//EN" "http://www.w3.org/Graphics/SVG/1.1/DTD/svg11.dtd" >
<svg xmlns="http://www.w3.org/2000/svg" xmlns:xlink="http://www.w3.org/1999/xlink" version="1.1" viewBox="-10 0 768 1000">
  <g transform="matrix(1 0 0 -1 0 800)">
   <path fill="currentColor"
d="M206 356q18 0 43 19.5t25 35.5q0 13 -24 13q-20 0 -38.5 -16t-18.5 -34t13 -18zM68 192q6 37 66 164t60 165q0 30 -5 54q79 0 112 -33q29 47 44 47q27 -15 35.5 -28t21.5 -53q8 2 16 2q21 0 49.5 -11t64.5 -41.5t66 -76t50.5 -123.5t20.5 -175q0 -46 -4 -83h-422
q1 44 18 79.5t36.5 55.5t37.5 49t22 60q-38 -15 -66 -40t-39 -45.5t-21.5 -36t-20.5 -15.5q-25 0 -25 31q-10 -13 -23 -13l-20 5q-31 8 -45.5 20.5t-28.5 41.5zM129 224q-14 0 -24 -9t-10 -22q0 -4 3 -10q14 0 23.5 8t9.5 21q0 2 -2 12zM620 70q0 74 -17.5 141t-44 112
t-57.5 78.5t-58 49t-46 15.5q-19 -2 -19 -13q0 -6 3 -8q99 -50 150.5 -153.5t51.5 -220.5q0 -27 19 -27q18 0 18 26z" />
  </g>

</svg>
