<?xml version="1.0" standalone="no"?>
<!DOCTYPE svg PUBLIC "-//W3C//DTD SVG 1.1//EN" "http://www.w3.org/Graphics/SVG/1.1/DTD/svg11.dtd" >
<svg xmlns="http://www.w3.org/2000/svg" xmlns:xlink="http://www.w3.org/1999/xlink" version="1.1" viewBox="-10 0 768 1000">
  <g transform="matrix(1 0 0 -1 0 800)">
   <path fill="currentColor"
d="M342 273q0 -12 -14.5 -23t-35.5 -24.5t-42 -33.5t-35.5 -59t-14.5 -93h357q0 45 -10.5 80.5t-26.5 55t-34.5 35t-34.5 23.5t-26.5 18t-10.5 21q0 10 9 16.5t20.5 11t20.5 19t9 37.5t-11 40t-24 24.5t-24 16t-11 15.5q0 15 10 31.5t10 26.5q0 18 -14 30.5t-32 12.5
q-17 0 -30.5 -12.5t-13.5 -28.5q0 -10 10 -27.5t10 -32.5q0 -7 -11 -15.5t-23.5 -16.5t-23.5 -25t-11 -39q0 -23 14.5 -40t29 -27t14.5 -17zM165 0q-1 12 -1 46q0 87 32 137.5t101 85.5q-24 8 -40 33t-16 56q0 67 68 96q-16 29 -16 57q0 34 25.5 55.5t60.5 21.5t60.5 -22
t25.5 -55q0 -27 -18 -57q69 -28 69 -96q0 -32 -16.5 -56.5t-40.5 -32.5q69 -36 101.5 -86t32.5 -137q0 -33 -1 -46h-427z" />
  </g>

</svg>
