<?xml version="1.0" standalone="no"?>
<!DOCTYPE svg PUBLIC "-//W3C//DTD SVG 1.1//EN" "http://www.w3.org/Graphics/SVG/1.1/DTD/svg11.dtd" >
<svg xmlns="http://www.w3.org/2000/svg" xmlns:xlink="http://www.w3.org/1999/xlink" version="1.1" viewBox="-10 0 767 1000">
  <g transform="matrix(1 0 0 -1 0 800)">
   <path fill="currentColor"
d="M378 225q55 0 102.5 -3.5t55.5 -3.5q12 0 15 1.5t3 7.5q0 20 -61.5 30.5t-113.5 10.5q-53 0 -114 -10.5t-61 -30.5q0 -5 3 -7t15 -2q1 0 60 3.5t96 3.5zM541 180q-79 10 -162 10q-87 0 -162 -10q12 -10 12 -39q0 -19 -6 -23q61 11 156 11t156 -11q-6 4 -6 23q0 29 12 39z
M542 66q0 28 -163 28t-163 -28q0 -25 163 -25t163 25zM379 617q-25 0 -25 -24q0 -26 25 -26q24 0 24 26q0 24 -24 24zM344 494q0 34 -10.5 63t-10.5 33q0 23 16.5 39.5t39.5 16.5t39 -16.5t16 -39.5q0 -4 -11 -32.5t-11 -63.5q0 -49 22 -145q54 114 54 172q0 6 -3 22.5
t-3 20.5q0 23 16 39.5t39 16.5q24 0 40.5 -16.5t16.5 -39.5q0 -18 -7 -28.5t-16 -16t-16 -26.5t-7 -58q0 -26 5 -84q65 67 65 109l-2 18q-3 18 -3 21q0 22 16.5 39t38.5 17q23 0 40 -16.5t17 -39.5q0 -41 -46 -62q-2 -40 -36 -180q0 -9 -37.5 -55t-37.5 -60q0 -9 14 -38
t14 -48v-16q0 -23 -72.5 -31.5t-145.5 -8.5q-81 0 -149 9.5t-68 30.5v16q0 21 13.5 50t13.5 36q0 21 -32.5 57t-41.5 58q-34 138 -36 180q-46 21 -46 62q0 23 17 39.5t39 16.5q23 0 39.5 -16.5t16.5 -39.5q0 -1 -2.5 -19t-2.5 -20q0 -44 64 -109q5 44 5 84q0 36 -7 57.5
t-16 27t-16 16.5t-7 28q0 23 17 39.5t40 16.5t39.5 -16.5t16.5 -39.5l-3 -19q-3 -19 -3 -24q0 -57 54 -172q21 91 21 145zM668 523q-9 0 -16.5 -7t-7.5 -17q0 -11 7 -18.5t17 -7.5q25 0 25 26q0 24 -25 24zM537 587q-10 0 -17 -7.5t-7 -17.5t7 -17.5t17 -7.5q26 0 26 25
t-26 25zM219 587q-25 0 -25 -25t25 -25q24 0 24 25t-24 25zM88 523q-25 0 -25 -24q0 -26 25 -26q24 0 24 26q0 10 -7.5 17t-16.5 7zM379 459q-9 -55 -20 -86.5t-20 -44.5t-11 -21q-5 6 -17 20t-15 19t-11.5 17.5t-13.5 24.5t-13 32t-17 46q2 -14 2 -29q0 -47 -17 -145
q-54 32 -105 102q24 -119 37 -133q2 -2 4 -3q82 47 217 47q136 0 217 -47q18 6 40 136q-52 -72 -104 -102q-17 87 -17 137q0 13 2 37q-15 -46 -30.5 -77.5t-25 -42.5t-18.5 -21t-13 -18q-5 9 -12 20.5t-9 16.5t-7 19.5t-10 36t-13 59.5z" />
  </g>

</svg>
