<?xml version="1.0" standalone="no"?>
<!DOCTYPE svg PUBLIC "-//W3C//DTD SVG 1.1//EN" "http://www.w3.org/Graphics/SVG/1.1/DTD/svg11.dtd" >
<svg xmlns="http://www.w3.org/2000/svg" xmlns:xlink="http://www.w3.org/1999/xlink" version="1.1" viewBox="-10 0 768 1000">
  <g transform="matrix(1 0 0 -1 0 800)">
   <path fill="currentColor"
d="M380 136q-63 0 -114.5 -9t-51.5 -23q0 -16 23 -16q4 0 61.5 4t82.5 4q26 0 82 -4t59 -4q23 0 23 16q0 32 -165 32zM89 522q-11 0 -18 -7t-7 -18t7 -18t18 -7q24 0 24 25t-24 25zM220 585q-26 0 -26 -25t26 -25q24 0 24 25t-24 25zM539 585q-10 0 -17 -7.5t-7 -17.5
q0 -25 24 -25q25 0 25 25t-25 25zM669 522q-24 0 -24 -25t24 -25q25 0 25 25q0 11 -7 18t-18 7zM569 141q0 -6 14 -38.5t14 -58.5q0 -24 -68.5 -34.5t-149.5 -10.5q-92 0 -154.5 12.5t-62.5 32.5q0 27 13.5 59t13.5 38q0 17 -37.5 60.5t-37.5 53.5q0 6 -7.5 31t-16.5 66
t-12 84q-46 19 -46 61q0 24 16.5 40t40.5 16q23 0 39.5 -16.5t16.5 -39.5q0 -1 -2.5 -18.5t-2.5 -19.5q0 -45 64 -110q5 41 5 86q0 37 -7 58t-16 26t-16 15t-7 28q0 24 16.5 40t40.5 16q23 0 39.5 -16.5t16.5 -39.5q0 -2 -3.5 -21t-3.5 -22q0 -56 55 -171q21 94 21 144
q0 36 -10.5 65.5t-10.5 31.5q0 24 16.5 40t39.5 16t38.5 -16.5t15.5 -39.5q0 -5 -10.5 -33t-10.5 -64q0 -50 21 -144q54 114 54 171q0 4 -3 21t-3 22q0 24 16.5 40t40.5 16q23 0 39.5 -16.5t16.5 -39.5q0 -15 -4.5 -23.5t-11.5 -14.5t-14 -14.5t-11.5 -27.5t-4.5 -48
q0 -44 5 -85q64 65 64 110q0 23 -5 38q0 23 16.5 39.5t39.5 16.5q24 0 40.5 -16.5t16.5 -39.5q0 -40 -46 -61q-6 -63 -21 -116.5t-15 -64.5q0 -9 -37.5 -53t-37.5 -61zM380 616q-10 0 -17.5 -7t-7.5 -18t7.5 -18t17.5 -7q24 0 24 25q0 10 -7 17.5t-17 7.5zM560 226
q0 17 -59.5 24.5t-120.5 7.5q-58 0 -119.5 -8t-61.5 -25q0 -14 26 -14q22 0 74 3.5t82 3.5q31 0 91.5 -3.5t63.5 -3.5q24 0 24 15z" />
  </g>

</svg>
