<svg version="1.1" id="Layer_1" xmlns="http://www.w3.org/2000/svg" xmlns:xlink="http://www.w3.org/1999/xlink" x="0px" y="0px"
	 width="100%" viewBox="0 0 978 978" enable-background="new 0 0 978 978" xml:space="preserve">
<path fill="#000000" opacity="1.000000" stroke="none" 
	d="
M568.000000,979.000000 
	C378.666656,979.000000 189.833328,979.000000 1.000000,979.000000 
	C1.000000,653.000000 1.000000,327.000000 1.000000,1.000000 
	C327.000000,1.000000 653.000000,1.000000 979.000000,1.000000 
	C979.000000,327.000000 979.000000,653.000000 979.000000,979.000000 
	C842.166687,979.000000 705.333313,979.000000 568.000000,979.000000 
M177.528625,268.555206 
	C180.618637,262.516968 183.989578,256.598907 186.650421,250.377121 
	C187.617142,248.116623 187.993896,244.350632 186.757843,242.601486 
	C177.686630,229.765015 166.777008,218.576492 153.360291,210.275482 
	C138.487076,201.073334 122.191124,195.037338 105.229546,190.940369 
	C83.544243,185.702423 64.444489,189.554047 49.808075,207.730698 
	C46.698372,211.592575 43.989681,215.778351 40.863422,219.625732 
	C34.683811,227.230743 28.026228,234.718277 26.738064,244.822769 
	C25.765141,252.454468 25.773870,260.261078 25.965813,267.974426 
	C26.099089,273.330261 27.285503,278.659882 27.983131,284.872406 
	C29.768057,293.273285 31.552982,301.674164 33.247002,310.812317 
	C34.442947,314.057892 35.576717,317.328033 36.845791,320.544739 
	C41.865814,333.268921 48.260212,345.632629 51.651672,358.773499 
	C56.324318,376.878540 61.565895,394.583618 70.002106,411.303467 
	C71.695564,414.659790 72.741829,418.354675 73.959236,421.936707 
	C76.647926,429.847687 78.138367,438.405762 82.121796,445.588409 
	C91.279663,462.101318 101.973099,477.725677 116.646652,490.021545 
	C119.937317,492.779053 124.158905,494.425629 128.462738,496.874298 
	C130.101440,487.192719 132.314728,478.673157 132.833603,470.051575 
	C133.761047,454.641815 133.684082,439.170898 133.995316,423.724945 
	C134.424637,402.416748 140.631210,382.151794 145.825272,361.798462 
	C150.126205,344.944916 156.371552,328.594727 161.470978,311.934479 
	C163.674301,304.736023 165.161331,297.318329 167.616592,289.698120 
	C170.742249,282.797974 173.867889,275.897827 177.528625,268.555206 
M805.063599,248.841949 
	C807.811951,255.575958 810.560242,262.309967 813.098328,269.890411 
	C814.188904,275.175171 814.898987,280.574249 816.446228,285.721741 
	C820.090149,297.844421 824.883667,309.667053 827.828369,321.943024 
	C831.656921,337.903503 833.751465,354.273102 837.317078,370.305450 
	C841.100769,387.318573 843.751587,404.362549 842.997192,421.836182 
	C842.625549,430.444489 842.453186,439.062897 841.970337,447.664398 
	C841.540710,455.316986 840.807251,462.952484 840.070190,472.350525 
	C847.258789,467.039337 853.891174,463.193817 859.179321,457.983917 
	C867.052307,450.227417 873.892822,441.431793 881.337830,433.228241 
	C885.208435,428.963196 889.964050,425.418762 893.396606,420.854431 
	C902.861572,408.268799 912.740173,396.142700 924.125061,385.176910 
	C931.892273,377.695435 937.974609,368.672241 940.798279,358.088898 
	C943.590576,347.623749 945.559692,336.940948 947.991638,326.377014 
	C949.680298,319.041504 951.946228,311.812622 953.172974,304.406708 
	C953.907227,299.973816 953.100891,295.291901 953.047852,290.721222 
	C952.905884,278.497284 952.796875,266.272980 952.741211,253.223999 
	C951.742798,243.824020 950.744385,234.424057 949.908691,224.191269 
	C948.920715,219.872009 948.051392,215.521362 946.919617,211.240112 
	C944.688843,202.802002 942.863464,194.198486 939.845581,186.042587 
	C936.648499,177.402283 932.359741,169.154739 928.344116,160.833923 
	C926.719910,157.468292 925.183777,153.668732 922.524353,151.265213 
	C913.440796,143.055893 902.562988,137.601532 890.939453,134.121017 
	C879.605652,130.727249 867.756714,130.497345 855.988647,131.116501 
	C853.534668,131.245621 850.927368,132.467087 848.787659,133.815186 
	C842.310120,137.896286 837.987488,143.902008 834.659119,150.701706 
	C829.769653,160.690887 824.197144,170.122208 816.448425,178.360916 
	C811.795715,183.307846 807.880554,189.319962 805.020508,195.495529 
	C800.592102,205.057617 795.984985,214.318008 788.006348,221.420578 
	C785.527893,223.626846 785.774841,225.769669 787.551331,227.892441 
	C793.262085,234.716400 799.112305,241.423645 805.063599,248.841949 
M505.818054,863.012756 
	C511.959229,863.268005 518.123596,863.989868 524.237000,863.686157 
	C539.281799,862.938782 554.312439,861.835449 569.330017,860.639832 
	C576.402039,860.076721 583.593445,859.636230 590.442139,857.960327 
	C601.328308,855.296509 612.146301,852.113831 622.651855,848.227844 
	C628.578552,846.035522 635.314636,843.181152 639.021545,838.510315 
	C644.494019,831.614685 647.597534,822.837524 651.700806,814.856995 
	C656.322144,805.868958 660.875427,796.845276 665.582397,787.902405 
	C667.117798,784.985229 669.159912,782.338379 670.768494,779.455322 
	C676.025146,770.033386 680.705017,760.250427 686.501892,751.178345 
	C695.151428,737.641907 704.712646,724.690979 713.552124,711.270996 
	C715.956665,707.620483 717.067322,703.136169 718.941162,699.113403 
	C721.850342,692.868103 724.453125,686.413940 728.032654,680.566895 
	C731.206055,675.383362 735.910706,671.156006 739.277527,666.068604 
	C747.858276,653.102905 756.464722,640.122864 764.287842,626.698120 
	C769.440430,617.856079 773.251587,608.232239 777.903503,598.152222 
	C779.627686,590.125122 781.365479,582.100891 783.072815,574.070190 
	C785.734253,561.551575 788.500244,549.053406 790.988342,536.500244 
	C793.372864,524.469788 796.870056,512.942993 803.110413,502.228973 
	C807.494324,494.702087 812.489136,487.047577 814.581665,478.784210 
	C817.629333,466.749268 818.972229,454.160339 819.817322,441.724396 
	C820.662842,429.282074 820.024475,416.737396 819.978943,404.237823 
	C819.972351,402.433075 819.767822,400.606842 819.443115,398.829224 
	C817.672119,389.134003 815.812866,379.454926 814.025696,369.762604 
	C811.524963,356.200439 809.934875,342.396851 806.371155,329.121826 
	C801.350525,310.419891 795.003235,292.066925 788.981079,273.643890 
	C785.446899,262.832031 781.964722,251.981339 772.285156,244.490860 
	C769.551514,242.375443 768.095032,238.652039 765.912476,235.772522 
	C762.229492,230.913467 759.069580,225.414108 754.564514,221.468887 
	C742.282471,210.713104 729.516968,200.497467 716.743591,190.318069 
	C705.674438,181.496750 695.216614,171.625153 681.733826,166.432861 
	C669.301147,161.644974 656.664734,157.384232 644.101013,152.939362 
	C636.510193,150.253860 629.057251,146.865463 621.242798,145.190979 
	C605.200928,141.753571 588.991455,139.045700 572.786560,136.438141 
	C559.634094,134.321808 546.395996,131.423752 533.180542,131.341919 
	C516.230896,131.236923 499.247925,133.410278 482.313721,134.974548 
	C470.353821,136.079300 458.320465,137.132095 446.556519,139.423218 
	C432.422882,142.175858 418.529663,146.175751 404.552673,149.715775 
	C393.878418,152.419281 383.245361,155.285278 372.576965,158.012512 
	C348.866455,164.073837 327.014893,174.079086 307.048981,188.295700 
	C294.849976,196.981918 284.268860,207.270325 273.945770,218.097519 
	C266.644440,225.755417 257.457489,231.689682 248.781464,237.933670 
	C243.922470,241.430603 238.690323,244.930298 233.081207,246.727036 
	C226.595383,248.804611 219.491196,248.906601 212.705429,250.140808 
	C211.665833,250.329880 210.606583,251.854431 210.047745,253.000839 
	C207.166412,258.911591 204.410172,264.884399 201.676483,270.865814 
	C197.720825,279.520966 193.005356,287.935852 190.073853,296.929138 
	C184.475922,314.102539 180.415543,331.779663 174.742126,348.925110 
	C170.670837,361.228851 166.017319,373.231873 163.231720,386.019958 
	C158.965561,405.604889 155.601105,425.139221 155.882980,445.266235 
	C156.086655,459.808411 156.263748,474.297791 153.273315,488.802948 
	C151.392441,497.926178 152.243698,507.627899 152.038345,517.073792 
	C151.958466,520.748779 151.942673,524.506042 152.591248,528.100708 
	C154.543304,538.920044 156.812210,549.682739 159.005569,560.457764 
	C160.377319,567.196533 161.251617,574.110474 163.395309,580.600281 
	C166.431778,589.792847 170.662338,598.583435 173.970352,607.695496 
	C179.473053,622.853027 185.364243,637.720886 194.535980,651.207825 
	C200.630615,660.169861 205.821671,669.776184 211.017288,679.311951 
	C216.985947,690.266541 221.566788,702.096985 228.476379,712.388245 
	C236.746964,724.706482 243.010284,737.484985 247.603607,751.633484 
	C253.935562,771.137390 265.372009,788.328491 276.200043,805.638733 
	C283.834167,817.843140 293.591217,827.985046 307.449554,833.152344 
	C319.452728,837.627869 331.450714,842.221985 343.723877,845.837280 
	C354.403412,848.983093 365.422974,851.047913 376.373779,853.169739 
	C382.178619,854.294556 388.163055,854.471863 394.055450,855.169678 
	C404.518494,856.408752 414.951263,857.952637 425.437439,858.932861 
	C435.966339,859.916992 446.537567,860.529846 457.103546,861.016846 
	C473.056030,861.751953 489.020081,862.236633 505.818054,863.012756 
M804.977234,594.879639 
	C805.925232,592.153931 807.100647,589.476440 807.695618,586.675781 
	C807.898621,585.720520 806.642761,584.455383 806.053528,583.331848 
	C805.598206,583.529114 805.142883,583.726440 804.687622,583.923706 
	C804.190552,587.362427 803.637146,590.795166 803.272888,594.247864 
	C803.230774,594.647278 804.239502,595.157532 804.977234,594.879639 
z"/>
<path fill="#895D42" opacity="1.000000" stroke="none" 
	d="
M504.979218,862.827759 
	C489.020081,862.236633 473.056030,861.751953 457.103546,861.016846 
	C446.537567,860.529846 435.966339,859.916992 425.437439,858.932861 
	C414.951263,857.952637 404.518494,856.408752 394.055450,855.169678 
	C388.163055,854.471863 382.178619,854.294556 376.373779,853.169739 
	C365.422974,851.047913 354.403412,848.983093 343.723877,845.837280 
	C331.450714,842.221985 319.452728,837.627869 307.449554,833.152344 
	C293.591217,827.985046 283.834167,817.843140 276.200043,805.638733 
	C265.372009,788.328491 253.935562,771.137390 247.603607,751.633484 
	C243.010284,737.484985 236.746964,724.706482 228.476379,712.388245 
	C221.566788,702.096985 216.985947,690.266541 211.017288,679.311951 
	C205.821671,669.776184 200.630615,660.169861 194.535980,651.207825 
	C185.364243,637.720886 179.473053,622.853027 173.970352,607.695496 
	C170.662338,598.583435 166.431778,589.792847 163.395309,580.600281 
	C161.251617,574.110474 160.377319,567.196533 159.005569,560.457764 
	C156.812210,549.682739 154.543304,538.920044 152.591248,528.100708 
	C151.942673,524.506042 151.958466,520.748779 152.038345,517.073792 
	C152.243698,507.627899 151.392441,497.926178 153.273315,488.802948 
	C156.263748,474.297791 156.086655,459.808411 155.882980,445.266235 
	C155.601105,425.139221 158.965561,405.604889 163.231720,386.019958 
	C166.017319,373.231873 170.670837,361.228851 174.742126,348.925110 
	C180.415543,331.779663 184.475922,314.102539 190.073853,296.929138 
	C193.005356,287.935852 197.720825,279.520966 201.676483,270.865814 
	C204.410172,264.884399 207.166412,258.911591 210.047745,253.000839 
	C210.606583,251.854431 211.665833,250.329880 212.705429,250.140808 
	C219.491196,248.906601 226.595383,248.804611 233.081207,246.727036 
	C238.690323,244.930298 243.922470,241.430603 248.781464,237.933670 
	C257.457489,231.689682 266.644440,225.755417 273.945770,218.097519 
	C284.268860,207.270325 294.849976,196.981918 307.048981,188.295700 
	C327.014893,174.079086 348.866455,164.073837 372.576965,158.012512 
	C383.245361,155.285278 393.878418,152.419281 404.552673,149.715775 
	C418.529663,146.175751 432.422882,142.175858 446.556519,139.423218 
	C458.320465,137.132095 470.353821,136.079300 482.313721,134.974548 
	C499.247925,133.410278 516.230896,131.236923 533.180542,131.341919 
	C546.395996,131.423752 559.634094,134.321808 572.786560,136.438141 
	C588.991455,139.045700 605.200928,141.753571 621.242798,145.190979 
	C629.057251,146.865463 636.510193,150.253860 644.101013,152.939362 
	C656.664734,157.384232 669.301147,161.644974 681.733826,166.432861 
	C695.216614,171.625153 705.674438,181.496750 716.743591,190.318069 
	C729.516968,200.497467 742.282471,210.713104 754.564514,221.468887 
	C759.069580,225.414108 762.229492,230.913467 765.912476,235.772522 
	C768.095032,238.652039 769.551514,242.375443 772.285156,244.490860 
	C781.964722,251.981339 785.446899,262.832031 788.981079,273.643890 
	C795.003235,292.066925 801.350525,310.419891 806.371155,329.121826 
	C809.934875,342.396851 811.524963,356.200439 814.025696,369.762604 
	C815.812866,379.454926 817.672119,389.134003 819.443115,398.829224 
	C819.767822,400.606842 819.972351,402.433075 819.978943,404.237823 
	C820.024475,416.737396 820.662842,429.282074 819.817322,441.724396 
	C818.972229,454.160339 817.629333,466.749268 814.581665,478.784210 
	C812.489136,487.047577 807.494324,494.702087 803.110413,502.228973 
	C796.870056,512.942993 793.372864,524.469788 790.988342,536.500244 
	C788.500244,549.053406 785.734253,561.551575 783.072815,574.070190 
	C781.365479,582.100891 779.627686,590.125122 777.383179,598.564941 
	C774.172729,599.583130 770.807312,599.370972 768.911011,600.937378 
	C761.281067,607.240051 754.082397,614.067627 746.782837,620.764893 
	C745.458069,621.980347 744.516418,623.608643 743.213013,624.852600 
	C732.996033,634.603516 722.718323,644.290649 712.491455,654.031250 
	C706.147583,660.073547 700.269653,666.688171 693.451599,672.130188 
	C682.965881,680.499390 671.859558,688.091980 661.000427,695.991943 
	C657.300293,698.683838 653.551453,701.308899 649.906494,703.608032 
	C652.170288,698.139526 654.479492,693.077026 656.504517,687.903381 
	C659.428040,680.434387 662.532959,673.002441 664.860291,665.341980 
	C668.365479,653.804382 671.382141,642.255249 671.782898,629.912537 
	C672.349792,612.452820 674.852356,595.064392 675.892761,577.607727 
	C676.363953,569.702271 675.605408,561.676697 674.830139,553.761963 
	C674.388000,549.248230 673.126587,544.729614 671.622742,540.426941 
	C669.833984,535.309021 666.789612,530.587891 665.341064,525.401062 
	C660.959839,509.713959 652.133606,496.563171 641.578125,484.743256 
	C630.699524,472.561554 617.871765,462.201569 603.676758,454.114563 
	C590.543640,446.632507 576.685486,440.383484 562.950439,434.014282 
	C556.133545,430.853210 549.069397,427.483246 541.773865,426.268097 
	C530.447388,424.381500 518.829163,423.562195 507.332062,423.538605 
	C488.426819,423.499847 469.522278,424.669403 450.612030,424.921234 
	C439.103699,425.074493 427.962372,427.109772 417.127228,430.568146 
	C405.223541,434.367493 393.367218,438.454346 381.843842,443.263214 
	C372.034302,447.356903 362.168091,451.814880 353.369171,457.676239 
	C345.970215,462.604980 340.052490,469.766083 333.514740,475.976532 
	C326.151825,482.970856 318.357300,489.586151 311.614349,497.137665 
	C304.094482,505.559174 298.567993,515.523621 295.963470,526.579834 
	C292.778839,540.098755 289.446503,553.718201 288.048553,567.484131 
	C286.682312,580.938171 287.240540,594.647888 287.769653,608.213623 
	C288.147125,617.892273 289.377716,627.609619 291.135040,637.142456 
	C292.969727,647.094788 294.502930,657.489868 298.687592,666.524231 
	C303.973938,677.936951 312.027557,688.039978 318.473022,698.952698 
	C323.472473,707.417236 327.171875,716.708008 332.665649,724.806213 
	C338.380096,733.229614 345.027374,741.188660 352.220978,748.398743 
	C361.843689,758.043274 373.605438,764.835388 386.217224,770.048889 
	C397.772247,774.825500 409.225311,779.869263 420.903778,784.321838 
	C437.247101,790.552979 453.739136,796.141418 471.728577,795.148071 
	C480.447479,794.666504 489.224762,795.241516 498.036926,795.674927 
	C504.406525,805.418579 505.110535,816.059631 505.021851,826.918030 
	C504.924133,838.887268 504.986542,850.857727 504.979218,862.827759 
M630.111328,374.390564 
	C623.124329,366.102875 616.362244,357.820892 605.438660,353.974304 
	C594.112305,349.985870 582.851685,350.029816 571.602966,352.922363 
	C561.683228,355.473145 556.489075,362.939606 552.137085,372.068970 
	C547.616455,381.552155 547.723572,390.781647 551.632080,399.378021 
	C555.641113,408.195343 557.767639,418.467102 566.046326,424.876556 
	C570.236084,428.120300 574.580322,432.414856 579.404907,433.328247 
	C589.493774,435.238342 599.939941,435.361267 610.255554,435.917450 
	C613.716003,436.104004 617.401550,435.957703 620.681091,434.963684 
	C632.087463,431.506348 638.453186,423.866516 640.272766,411.779175 
	C642.361755,397.902740 639.230591,385.807709 630.111328,374.390564 
M391.821716,349.036865 
	C383.526215,352.549713 373.941406,354.473328 367.219849,359.926331 
	C355.425354,369.494720 346.112732,381.528534 344.821991,397.953979 
	C344.097717,407.171570 347.548279,414.682037 354.326569,419.876587 
	C365.268951,428.262390 377.757202,432.676270 392.046265,431.066101 
	C403.659393,429.757446 412.927612,423.623047 422.096466,417.429199 
	C430.319977,411.873932 433.331696,402.318817 438.011200,394.069305 
	C445.702606,380.510101 436.809723,362.138885 424.704926,355.871063 
	C414.596893,350.637146 404.223633,347.243805 391.821716,349.036865 
z"/>
<path fill="#764B33" opacity="1.000000" stroke="none" 
	d="
M952.674683,254.048798 
	C952.796875,266.272980 952.905884,278.497284 953.047852,290.721222 
	C953.100891,295.291901 953.907227,299.973816 953.172974,304.406708 
	C951.946228,311.812622 949.680298,319.041504 947.991638,326.377014 
	C945.559692,336.940948 943.590576,347.623749 940.798279,358.088898 
	C937.974609,368.672241 931.892273,377.695435 924.125061,385.176910 
	C912.740173,396.142700 902.861572,408.268799 893.396606,420.854431 
	C889.964050,425.418762 885.208435,428.963196 881.337830,433.228241 
	C873.892822,441.431793 867.052307,450.227417 859.179321,457.983917 
	C853.891174,463.193817 847.258789,467.039337 840.070190,472.350525 
	C840.807251,462.952484 841.540710,455.316986 841.970337,447.664398 
	C842.453186,439.062897 842.625549,430.444489 842.997192,421.836182 
	C843.751587,404.362549 841.100769,387.318573 837.317078,370.305450 
	C833.751465,354.273102 831.656921,337.903503 827.828369,321.943024 
	C824.883667,309.667053 820.090149,297.844421 816.446228,285.721741 
	C814.898987,280.574249 814.188904,275.175171 813.520447,269.405273 
	C816.535034,266.873169 819.403076,265.091888 821.674255,262.735260 
	C834.438293,249.490829 846.884216,235.935638 859.811523,222.854858 
	C865.176086,217.426605 871.428345,212.301544 879.974426,214.580215 
	C892.741821,217.984421 904.545105,223.661972 915.681519,230.801132 
	C927.941833,238.660797 940.337830,246.308655 952.674683,254.048798 
z"/>
<path fill="#7B543D" opacity="1.000000" stroke="none" 
	d="
M505.398621,862.920227 
	C504.986542,850.857727 504.924133,838.887268 505.021851,826.918030 
	C505.110535,816.059631 504.406525,805.418579 498.482574,795.580444 
	C520.248169,793.829163 540.838684,788.480042 561.186340,782.309387 
	C578.866272,776.947754 593.173279,765.822266 607.419250,754.379822 
	C618.748535,745.280212 628.456726,735.145996 636.239807,722.937134 
	C640.414978,716.387756 645.274292,710.274475 649.824829,703.964478 
	C653.551453,701.308899 657.300293,698.683838 661.000427,695.991943 
	C671.859558,688.091980 682.965881,680.499390 693.451599,672.130188 
	C700.269653,666.688171 706.147583,660.073547 712.491455,654.031250 
	C722.718323,644.290649 732.996033,634.603516 743.213013,624.852600 
	C744.516418,623.608643 745.458069,621.980347 746.782837,620.764893 
	C754.082397,614.067627 761.281067,607.240051 768.911011,600.937378 
	C770.807312,599.370972 774.172729,599.583130 777.263123,598.968140 
	C773.251587,608.232239 769.440430,617.856079 764.287842,626.698120 
	C756.464722,640.122864 747.858276,653.102905 739.277527,666.068604 
	C735.910706,671.156006 731.206055,675.383362 728.032654,680.566895 
	C724.453125,686.413940 721.850342,692.868103 718.941162,699.113403 
	C717.067322,703.136169 715.956665,707.620483 713.552124,711.270996 
	C704.712646,724.690979 695.151428,737.641907 686.501892,751.178345 
	C680.705017,760.250427 676.025146,770.033386 670.768494,779.455322 
	C669.159912,782.338379 667.117798,784.985229 665.582397,787.902405 
	C660.875427,796.845276 656.322144,805.868958 651.700806,814.856995 
	C647.597534,822.837524 644.494019,831.614685 639.021545,838.510315 
	C635.314636,843.181152 628.578552,846.035522 622.651855,848.227844 
	C612.146301,852.113831 601.328308,855.296509 590.442139,857.960327 
	C583.593445,859.636230 576.402039,860.076721 569.330017,860.639832 
	C554.312439,861.835449 539.281799,862.938782 524.237000,863.686157 
	C518.123596,863.989868 511.959229,863.268005 505.398621,862.920227 
z"/>
<path fill="#7F563C" opacity="1.000000" stroke="none" 
	d="
M166.973740,290.000214 
	C165.161331,297.318329 163.674301,304.736023 161.470978,311.934479 
	C156.371552,328.594727 150.126205,344.944916 145.825272,361.798462 
	C140.631210,382.151794 134.424637,402.416748 133.995316,423.724945 
	C133.684082,439.170898 133.761047,454.641815 132.833603,470.051575 
	C132.314728,478.673157 130.101440,487.192719 128.462738,496.874298 
	C124.158905,494.425629 119.937317,492.779053 116.646652,490.021545 
	C101.973099,477.725677 91.279663,462.101318 82.121796,445.588409 
	C78.138367,438.405762 76.647926,429.847687 73.959236,421.936707 
	C72.741829,418.354675 71.695564,414.659790 70.002106,411.303467 
	C61.565895,394.583618 56.324318,376.878540 51.651672,358.773499 
	C48.260212,345.632629 41.865814,333.268921 36.845791,320.544739 
	C35.576717,317.328033 34.442947,314.057892 33.615150,310.379639 
	C39.529739,306.694122 45.094772,303.472473 50.619160,300.182587 
	C67.960999,289.855194 85.542862,279.899506 102.514381,268.994598 
	C111.257698,263.376648 120.236542,260.843933 130.267578,262.116760 
	C133.686203,262.550568 137.582001,263.706085 140.105423,265.874908 
	C147.772125,272.464264 154.843033,279.743683 162.225357,286.669739 
	C163.621124,287.979248 165.381561,288.900055 166.973740,290.000214 
z"/>
<path fill="#5A3624" opacity="1.000000" stroke="none" 
	d="
M804.908813,248.175903 
	C799.112305,241.423645 793.262085,234.716400 787.551331,227.892441 
	C785.774841,225.769669 785.527893,223.626846 788.006348,221.420578 
	C795.984985,214.318008 800.592102,205.057617 805.020508,195.495529 
	C807.880554,189.319962 811.795715,183.307846 816.448425,178.360916 
	C824.197144,170.122208 829.769653,160.690887 834.659119,150.701706 
	C837.987488,143.902008 842.310120,137.896286 848.787659,133.815186 
	C850.927368,132.467087 853.534668,131.245621 855.988647,131.116501 
	C867.756714,130.497345 879.605652,130.727249 890.939453,134.121017 
	C902.562988,137.601532 913.440796,143.055893 922.524353,151.265213 
	C925.183777,153.668732 926.719910,157.468292 928.344116,160.833923 
	C932.359741,169.154739 936.648499,177.402283 939.845581,186.042587 
	C942.863464,194.198486 944.688843,202.802002 946.919617,211.240112 
	C948.051392,215.521362 948.920715,219.872009 949.501587,224.549957 
	C946.242920,222.708282 943.447876,220.429672 940.529968,218.320999 
	C927.181946,208.674774 913.001770,200.605362 897.726257,194.275314 
	C882.286133,187.877014 867.118530,186.722275 853.435425,197.091858 
	C843.855347,204.351990 835.604004,213.421570 827.082703,222.004211 
	C820.712463,228.420380 815.094238,235.590256 808.634155,241.905975 
	C806.639099,243.856384 804.562927,245.102386 804.908813,248.175903 
z"/>
<path fill="#523121" opacity="1.000000" stroke="none" 
	d="
M28.001406,284.001221 
	C27.285503,278.659882 26.099089,273.330261 25.965813,267.974426 
	C25.773870,260.261078 25.765141,252.454468 26.738064,244.822769 
	C28.026228,234.718277 34.683811,227.230743 40.863422,219.625732 
	C43.989681,215.778351 46.698372,211.592575 49.808075,207.730698 
	C64.444489,189.554047 83.544243,185.702423 105.229546,190.940369 
	C122.191124,195.037338 138.487076,201.073334 153.360291,210.275482 
	C166.777008,218.576492 177.686630,229.765015 186.757843,242.601486 
	C187.993896,244.350632 187.617142,248.116623 186.650421,250.377121 
	C183.989578,256.598907 180.618637,262.516968 176.997864,268.542114 
	C176.025864,267.302490 175.939636,265.686859 175.088150,264.909973 
	C167.145294,257.663361 159.178101,250.435654 151.008911,243.446808 
	C139.744949,233.810333 126.643356,235.017792 113.318214,237.329285 
	C101.893921,239.311035 92.638710,245.837067 83.033562,251.503220 
	C72.640518,257.634186 62.812309,264.719055 52.455715,270.916565 
	C44.531799,275.658325 36.168995,279.666656 28.001406,284.001221 
z"/>
<path fill="#663F2A" opacity="1.000000" stroke="none" 
	d="
M804.986206,248.508911 
	C804.562927,245.102386 806.639099,243.856384 808.634155,241.905975 
	C815.094238,235.590256 820.712463,228.420380 827.082703,222.004211 
	C835.604004,213.421570 843.855347,204.351990 853.435425,197.091858 
	C867.118530,186.722275 882.286133,187.877014 897.726257,194.275314 
	C913.001770,200.605362 927.181946,208.674774 940.529968,218.320999 
	C943.447876,220.429672 946.242920,222.708282 949.420227,224.966354 
	C950.744385,234.424057 951.742798,243.824020 952.708008,253.636398 
	C940.337830,246.308655 927.941833,238.660797 915.681519,230.801132 
	C904.545105,223.661972 892.741821,217.984421 879.974426,214.580215 
	C871.428345,212.301544 865.176086,217.426605 859.811523,222.854858 
	C846.884216,235.935638 834.438293,249.490829 821.674255,262.735260 
	C819.403076,265.091888 816.535034,266.873169 813.625549,268.982056 
	C810.560242,262.309967 807.811951,255.575958 804.986206,248.508911 
z"/>
<path fill="#67422E" opacity="1.000000" stroke="none" 
	d="
M27.992270,284.436829 
	C36.168995,279.666656 44.531799,275.658325 52.455715,270.916565 
	C62.812309,264.719055 72.640518,257.634186 83.033562,251.503220 
	C92.638710,245.837067 101.893921,239.311035 113.318214,237.329285 
	C126.643356,235.017792 139.744949,233.810333 151.008911,243.446808 
	C159.178101,250.435654 167.145294,257.663361 175.088150,264.909973 
	C175.939636,265.686859 176.025864,267.302490 176.730316,268.763367 
	C173.867889,275.897827 170.742249,282.797974 167.295166,289.849182 
	C165.381561,288.900055 163.621124,287.979248 162.225357,286.669739 
	C154.843033,279.743683 147.772125,272.464264 140.105423,265.874908 
	C137.582001,263.706085 133.686203,262.550568 130.267578,262.116760 
	C120.236542,260.843933 111.257698,263.376648 102.514381,268.994598 
	C85.542862,279.899506 67.960999,289.855194 50.619160,300.182587 
	C45.094772,303.472473 39.529739,306.694122 33.660606,310.011017 
	C31.552982,301.674164 29.768057,293.273285 27.992270,284.436829 
z"/>
<path fill="#7F7562" opacity="1.000000" stroke="none" 
	d="
M804.869141,595.248047 
	C804.239502,595.157532 803.230774,594.647278 803.272888,594.247864 
	C803.637146,590.795166 804.190552,587.362427 804.687622,583.923706 
	C805.142883,583.726440 805.598206,583.529114 806.053528,583.331848 
	C806.642761,584.455383 807.898621,585.720520 807.695618,586.675781 
	C807.100647,589.476440 805.925232,592.153931 804.869141,595.248047 
z"/>
<path fill="#010101" opacity="1.000000" stroke="none" 
	d="
M649.906433,703.608032 
	C645.274292,710.274475 640.414978,716.387756 636.239807,722.937134 
	C628.456726,735.145996 618.748535,745.280212 607.419250,754.379822 
	C593.173279,765.822266 578.866272,776.947754 561.186340,782.309387 
	C540.838684,788.480042 520.248169,793.829163 498.421265,795.243774 
	C489.224762,795.241516 480.447479,794.666504 471.728577,795.148071 
	C453.739136,796.141418 437.247101,790.552979 420.903778,784.321838 
	C409.225311,779.869263 397.772247,774.825500 386.217224,770.048889 
	C373.605438,764.835388 361.843689,758.043274 352.220978,748.398743 
	C345.027374,741.188660 338.380096,733.229614 332.665649,724.806213 
	C327.171875,716.708008 323.472473,707.417236 318.473022,698.952698 
	C312.027557,688.039978 303.973938,677.936951 298.687592,666.524231 
	C294.502930,657.489868 292.969727,647.094788 291.135040,637.142456 
	C289.377716,627.609619 288.147125,617.892273 287.769653,608.213623 
	C287.240540,594.647888 286.682312,580.938171 288.048553,567.484131 
	C289.446503,553.718201 292.778839,540.098755 295.963470,526.579834 
	C298.567993,515.523621 304.094482,505.559174 311.614349,497.137665 
	C318.357300,489.586151 326.151825,482.970856 333.514740,475.976532 
	C340.052490,469.766083 345.970215,462.604980 353.369171,457.676239 
	C362.168091,451.814880 372.034302,447.356903 381.843842,443.263214 
	C393.367218,438.454346 405.223541,434.367493 417.127228,430.568146 
	C427.962372,427.109772 439.103699,425.074493 450.612030,424.921234 
	C469.522278,424.669403 488.426819,423.499847 507.332062,423.538605 
	C518.829163,423.562195 530.447388,424.381500 541.773865,426.268097 
	C549.069397,427.483246 556.133545,430.853210 562.950439,434.014282 
	C576.685486,440.383484 590.543640,446.632507 603.676758,454.114563 
	C617.871765,462.201569 630.699524,472.561554 641.578125,484.743256 
	C652.133606,496.563171 660.959839,509.713959 665.341064,525.401062 
	C666.789612,530.587891 669.833984,535.309021 671.622742,540.426941 
	C673.126587,544.729614 674.388000,549.248230 674.830139,553.761963 
	C675.605408,561.676697 676.363953,569.702271 675.892761,577.607727 
	C674.852356,595.064392 672.349792,612.452820 671.782898,629.912537 
	C671.382141,642.255249 668.365479,653.804382 664.860291,665.341980 
	C662.532959,673.002441 659.428040,680.434387 656.504517,687.903381 
	C654.479492,693.077026 652.170288,698.139526 649.906433,703.608032 
M641.219543,665.366760 
	C647.088257,653.864197 649.744690,641.527344 650.872009,628.762634 
	C651.830505,617.910828 652.131470,606.913025 654.206787,596.268982 
	C657.130371,581.274414 655.738464,566.540710 652.769653,552.024902 
	C651.045776,543.596069 646.598022,535.723206 643.365784,527.604248 
	C636.695557,510.849670 625.875610,497.222137 611.910034,485.987671 
	C591.009766,469.174683 567.371033,457.504974 542.065918,449.025177 
	C537.554199,447.513336 532.900391,445.331696 528.310303,445.327209 
	C500.542084,445.300018 472.772369,445.757843 445.005920,446.220398 
	C441.425232,446.279999 437.723877,446.872711 434.312378,447.955536 
	C419.842896,452.548248 405.418060,457.292084 391.060211,462.223145 
	C376.101166,467.360687 362.645599,474.868347 352.140625,487.138397 
	C347.821045,492.183807 343.211670,497.179047 337.966431,501.194275 
	C325.769012,510.531311 318.496857,522.770508 314.973541,537.408386 
	C313.545410,543.341675 312.745911,549.433899 311.816467,555.477783 
	C310.516693,563.930298 308.313690,572.414001 308.383484,580.868774 
	C308.499268,594.890198 309.962158,608.912476 311.161346,622.908325 
	C311.863617,631.104797 312.116577,639.565735 314.472626,647.330933 
	C316.824066,655.080872 321.265320,662.270264 325.297607,669.419373 
	C331.222717,679.924316 337.647125,690.146545 343.758728,700.548096 
	C346.260376,704.805664 348.350037,709.307251 350.891296,713.539246 
	C356.262451,722.483704 361.745819,731.379395 371.815033,737.001465 
	C377.914215,740.687744 383.691559,745.120667 390.175049,747.915527 
	C407.278809,755.288757 424.543732,762.350647 442.043976,768.712769 
	C449.757568,771.517029 458.129456,772.822937 466.321198,773.934021 
	C482.963745,776.191223 499.451202,774.428101 515.839478,771.005310 
	C534.703247,767.065552 553.854187,764.071655 570.416443,753.195007 
	C574.571655,750.466187 578.304199,747.091858 582.470764,744.382935 
	C597.184082,734.816956 609.512939,722.690613 619.465393,708.408325 
	C625.418152,699.865662 630.090759,690.388672 634.881226,681.095764 
	C637.353882,676.299194 638.827148,670.987427 641.219543,665.366760 
z"/>
<path fill="#010101" opacity="1.000000" stroke="none" 
	d="
M630.324280,374.686890 
	C639.230591,385.807709 642.361755,397.902740 640.272766,411.779175 
	C638.453186,423.866516 632.087463,431.506348 620.681091,434.963684 
	C617.401550,435.957703 613.716003,436.104004 610.255554,435.917450 
	C599.939941,435.361267 589.493774,435.238342 579.404907,433.328247 
	C574.580322,432.414856 570.236084,428.120300 566.046326,424.876556 
	C557.767639,418.467102 555.641113,408.195343 551.632080,399.378021 
	C547.723572,390.781647 547.616455,381.552155 552.137085,372.068970 
	C556.489075,362.939606 561.683228,355.473145 571.602966,352.922363 
	C582.851685,350.029816 594.112305,349.985870 605.438660,353.974304 
	C616.362244,357.820892 623.124329,366.102875 630.324280,374.686890 
M578.825623,397.062897 
	C578.986084,398.696503 578.933716,400.385681 579.343262,401.954285 
	C581.329468,409.563110 588.737244,413.337769 596.078552,410.586792 
	C602.939331,408.015900 606.116760,400.054688 602.967163,393.326874 
	C600.670227,388.420227 595.995544,385.658722 590.408081,386.137115 
	C584.111145,386.676331 580.654663,390.531525 578.825623,397.062897 
z"/>
<path fill="#010101" opacity="1.000000" stroke="none" 
	d="
M392.249634,349.023254 
	C404.223633,347.243805 414.596893,350.637146 424.704926,355.871063 
	C436.809723,362.138885 445.702606,380.510101 438.011200,394.069305 
	C433.331696,402.318817 430.319977,411.873932 422.096466,417.429199 
	C412.927612,423.623047 403.659393,429.757446 392.046265,431.066101 
	C377.757202,432.676270 365.268951,428.262390 354.326569,419.876587 
	C347.548279,414.682037 344.097717,407.171570 344.821991,397.953979 
	C346.112732,381.528534 355.425354,369.494720 367.219849,359.926331 
	C373.941406,354.473328 383.526215,352.549713 392.249634,349.023254 
M381.523499,394.053894 
	C381.981873,395.476776 382.299683,396.964874 382.924042,398.310760 
	C385.111084,403.025421 389.114410,405.273865 394.074646,405.449005 
	C398.660492,405.610870 402.489380,403.646606 404.963074,399.618866 
	C407.826385,394.956787 407.592712,388.984344 404.521332,385.053253 
	C401.172546,380.767120 395.845337,379.019318 390.674927,380.510559 
	C385.050873,382.132568 382.097046,386.235138 381.523499,394.053894 
z"/>
<path fill="#956E53" opacity="1.000000" stroke="none" 
	d="
M371.484100,736.414185 
	C361.745819,731.379395 356.262451,722.483704 350.891296,713.539246 
	C348.350037,709.307251 346.260376,704.805664 343.758728,700.548096 
	C337.647125,690.146545 331.222717,679.924316 325.297607,669.419373 
	C321.265320,662.270264 316.824066,655.080872 314.472626,647.330933 
	C312.116577,639.565735 311.863617,631.104797 311.161346,622.908325 
	C309.962158,608.912476 308.499268,594.890198 308.383484,580.868774 
	C308.313690,572.414001 310.516693,563.930298 311.816467,555.477783 
	C312.745911,549.433899 313.545410,543.341675 314.973541,537.408386 
	C318.496857,522.770508 325.769012,510.531311 337.966431,501.194275 
	C343.211670,497.179047 347.821045,492.183807 352.140625,487.138397 
	C362.645599,474.868347 376.101166,467.360687 391.060211,462.223145 
	C405.418060,457.292084 419.842896,452.548248 434.312378,447.955536 
	C437.723877,446.872711 441.425232,446.279999 445.005920,446.220398 
	C472.772369,445.757843 500.542084,445.300018 528.310303,445.327209 
	C532.900391,445.331696 537.554199,447.513336 542.065918,449.025177 
	C567.371033,457.504974 591.009766,469.174683 611.910034,485.987671 
	C625.875610,497.222137 636.695557,510.849670 643.365784,527.604248 
	C646.598022,535.723206 651.045776,543.596069 652.769653,552.024902 
	C655.738464,566.540710 657.130371,581.274414 654.206787,596.268982 
	C652.131470,606.913025 651.830505,617.910828 650.872009,628.762634 
	C649.744690,641.527344 647.088257,653.864197 640.636292,665.653503 
	C638.438232,666.733154 636.566406,667.230896 635.255066,668.372375 
	C630.626038,672.401794 626.217896,676.683472 621.672363,680.810364 
	C615.448547,686.460938 609.765991,692.984985 602.770996,697.436890 
	C594.456665,702.728271 585.161682,706.619934 575.995056,710.398621 
	C560.995300,716.581848 545.982849,722.686340 529.706970,725.201843 
	C514.854187,727.497559 499.932098,730.005371 485.464813,733.968567 
	C467.103943,738.998413 448.794220,742.973267 429.645966,742.032532 
	C421.531647,741.633789 413.355103,741.982605 405.293701,741.150574 
	C393.981384,739.983032 382.750061,738.030823 371.484100,736.414185 
M567.147888,543.510254 
	C565.482300,538.922546 564.354004,534.041443 562.042053,529.806641 
	C556.816589,520.234863 546.885864,516.155884 538.020325,511.152771 
	C532.389526,507.975098 526.048523,504.552002 519.848206,504.176636 
	C503.004883,503.156921 486.139923,503.773468 469.326660,506.661774 
	C450.616486,509.875916 439.039734,522.775574 434.193726,539.099976 
	C431.667999,547.608154 432.646149,557.131226 431.824005,566.176147 
	C430.525696,580.459290 441.011902,596.300110 455.780273,602.799133 
	C469.682190,608.916931 483.500671,612.201172 498.564056,611.222778 
	C505.365021,610.781067 512.247131,610.757690 519.040283,611.255615 
	C526.092651,611.772644 532.075317,609.380493 537.908203,606.044495 
	C541.502808,603.988708 545.034912,601.823059 548.582764,599.686279 
	C565.454529,589.524292 572.614075,574.803833 567.724792,549.294312 
	C567.416077,547.683716 567.335083,546.029480 567.147888,543.510254 
z"/>
<path fill="#754F39" opacity="1.000000" stroke="none" 
	d="
M371.649567,736.707886 
	C382.750061,738.030823 393.981384,739.983032 405.293701,741.150574 
	C413.355103,741.982605 421.531647,741.633789 429.645966,742.032532 
	C448.794220,742.973267 467.103943,738.998413 485.464813,733.968567 
	C499.932098,730.005371 514.854187,727.497559 529.706970,725.201843 
	C545.982849,722.686340 560.995300,716.581848 575.995056,710.398621 
	C585.161682,706.619934 594.456665,702.728271 602.770996,697.436890 
	C609.765991,692.984985 615.448547,686.460938 621.672363,680.810364 
	C626.217896,676.683472 630.626038,672.401794 635.255066,668.372375 
	C636.566406,667.230896 638.438232,666.733154 640.402466,665.924316 
	C638.827148,670.987427 637.353882,676.299194 634.881226,681.095764 
	C630.090759,690.388672 625.418152,699.865662 619.465393,708.408325 
	C609.512939,722.690613 597.184082,734.816956 582.470764,744.382935 
	C578.304199,747.091858 574.571655,750.466187 570.416443,753.195007 
	C553.854187,764.071655 534.703247,767.065552 515.839478,771.005310 
	C499.451202,774.428101 482.963745,776.191223 466.321198,773.934021 
	C458.129456,772.822937 449.757568,771.517029 442.043976,768.712769 
	C424.543732,762.350647 407.278809,755.288757 390.175049,747.915527 
	C383.691559,745.120667 377.914215,740.687744 371.649567,736.707886 
z"/>
<path fill="#F8F8F8" opacity="1.000000" stroke="none" 
	d="
M578.918335,396.702148 
	C580.654663,390.531525 584.111145,386.676331 590.408081,386.137115 
	C595.995544,385.658722 600.670227,388.420227 602.967163,393.326874 
	C606.116760,400.054688 602.939331,408.015900 596.078552,410.586792 
	C588.737244,413.337769 581.329468,409.563110 579.343262,401.954285 
	C578.933716,400.385681 578.986084,398.696503 578.918335,396.702148 
z"/>
<path fill="#F8F8F8" opacity="1.000000" stroke="none" 
	d="
M381.501221,393.668274 
	C382.097046,386.235138 385.050873,382.132568 390.674927,380.510559 
	C395.845337,379.019318 401.172546,380.767120 404.521332,385.053253 
	C407.592712,388.984344 407.826385,394.956787 404.963074,399.618866 
	C402.489380,403.646606 398.660492,405.610870 394.074646,405.449005 
	C389.114410,405.273865 385.111084,403.025421 382.924042,398.310760 
	C382.299683,396.964874 381.981873,395.476776 381.501221,393.668274 
z"/>
<path fill="#010101" opacity="1.000000" stroke="none" 
	d="
M567.148010,543.952881 
	C567.335083,546.029480 567.416077,547.683716 567.724792,549.294312 
	C572.614075,574.803833 565.454529,589.524292 548.582764,599.686279 
	C545.034912,601.823059 541.502808,603.988708 537.908203,606.044495 
	C532.075317,609.380493 526.092651,611.772644 519.040283,611.255615 
	C512.247131,610.757690 505.365021,610.781067 498.564056,611.222778 
	C483.500671,612.201172 469.682190,608.916931 455.780273,602.799133 
	C441.011902,596.300110 430.525696,580.459290 431.824005,566.176147 
	C432.646149,557.131226 431.667999,547.608154 434.193726,539.099976 
	C439.039734,522.775574 450.616486,509.875916 469.326660,506.661774 
	C486.139923,503.773468 503.004883,503.156921 519.848206,504.176636 
	C526.048523,504.552002 532.389526,507.975098 538.020325,511.152771 
	C546.885864,516.155884 556.816589,520.234863 562.042053,529.806641 
	C564.354004,534.041443 565.482300,538.922546 567.148010,543.952881 
M477.692932,588.013550 
	C478.977905,588.346313 480.255951,588.937073 481.548920,588.971863 
	C494.173340,589.311462 506.799622,589.656982 519.427002,589.730957 
	C521.457458,589.742859 523.652039,588.703918 525.500244,587.668091 
	C530.429382,584.905579 535.273865,581.977844 540.031250,578.927429 
	C543.669922,576.594360 546.218262,573.563232 546.207520,568.775146 
	C546.202026,566.337402 547.182678,563.906555 547.631409,561.456848 
	C548.752502,555.336487 547.664734,549.929993 544.185303,544.452942 
	C538.652832,535.744019 530.091187,531.551819 521.407349,527.488037 
	C518.198792,525.986511 514.284119,525.159851 510.754364,525.330078 
	C498.677582,525.912292 486.609375,526.881531 474.576965,528.091309 
	C468.060577,528.746521 462.721466,531.678711 458.943787,537.521729 
	C452.529663,547.442566 452.556946,558.205200 453.862030,569.259460 
	C454.515564,574.795044 457.177399,578.894104 462.377289,581.212952 
	C467.239288,583.381165 472.077332,585.603088 477.692932,588.013550 
z"/>
<path fill="#5F4837" opacity="1.000000" stroke="none" 
	d="
M477.309418,587.907471 
	C472.077332,585.603088 467.239288,583.381165 462.377289,581.212952 
	C457.177399,578.894104 454.515564,574.795044 453.862030,569.259460 
	C452.556946,558.205200 452.529663,547.442566 458.943787,537.521729 
	C462.721466,531.678711 468.060577,528.746521 474.576965,528.091309 
	C486.609375,526.881531 498.677582,525.912292 510.754364,525.330078 
	C514.284119,525.159851 518.198792,525.986511 521.407349,527.488037 
	C530.091187,531.551819 538.652832,535.744019 544.185303,544.452942 
	C547.664734,549.929993 548.752502,555.336487 547.631409,561.456848 
	C547.182678,563.906555 546.202026,566.337402 546.207520,568.775146 
	C546.218262,573.563232 543.669922,576.594360 540.031250,578.927429 
	C535.273865,581.977844 530.429382,584.905579 525.500244,587.668091 
	C523.652039,588.703918 521.457458,589.742859 519.427002,589.730957 
	C506.799622,589.656982 494.173340,589.311462 481.548920,588.971863 
	C480.255951,588.937073 478.977905,588.346313 477.309418,587.907471 
z"/>
</svg>